PathFileType	4	(X/Y/Z)	D:\TRACE\v60_Jaco2_6-2-23\JustBodyDRS_Motion2_8-v60.trc
DataRate	CameraRate	NumFrames	NumMarkers	Units	OrigDataRate	OrigDataStartFrame	OrigNumFrames
100.00	100.00	      13	9	mm	100.00	865	      6914
Frame#	Time	front left toe			Front right toe			aft left toe			aft right toe			Arm			FL body			FR body			AL Body			AR Body			
		X1	Y1	Z1	X2	Y2	Z2	X3	Y3	Z3	X4	Y4	Z4	X5	Y5	Z5	X6	Y6	Z6	X7	Y7	Z7	X8	Y8	Z8	X9	Y9	Z9	

865	8.640	-127.68044	57.29943	-147.58810	163.81914	32.01512	-181.70932	-192.87128	-23.61887	454.28818	255.31085	7.66804	471.42245	-45.50434	1226.59363	-247.51508	-40.98312	595.71326	-293.21472	118.62015	590.31396	-295.50165	-28.34873	518.11377	649.39380	126.71684	506.52121	646.45386	
866	8.650	-125.88406	47.45261	-145.56854	163.49088	31.78300	-181.66663	-193.43826	-23.37085	454.33630	257.87857	-1.52121	472.32169	-43.80547	1226.52747	-245.59920	-39.50914	595.92102	-292.00314	120.16474	590.47375	-294.39645	-26.73547	517.13367	650.65155	128.47516	505.59079	647.46997	
867	8.660	-124.05801	38.67220	-143.69695	162.99190	31.56083	-181.62254	-193.73268	-23.10756	454.46875	260.90146	-9.88835	473.11285	-42.19000	1226.86951	-243.58966	-37.89971	596.15503	-290.67752	121.89970	590.63855	-293.60019	-24.76621	516.28442	652.32996	129.38858	504.62222	648.83258	
868	8.670	-124.03269	37.32128	-145.33295	162.41280	31.24895	-181.59697	-194.10608	-23.01469	454.45038	263.61047	-17.45126	474.13736	-41.06441	1226.71277	-241.23232	-36.44466	595.83374	-289.45432	123.72642	590.69592	-292.01965	-22.96475	515.11548	653.11560	132.23607	503.38821	650.02106	
869	8.680	-124.40309	33.97025	-144.48647	162.04100	31.11446	-181.64751	-194.74756	-22.91552	454.79813	264.56998	-18.74632	472.59680	-39.47168	1226.39600	-239.19235	-34.76910	596.48914	-287.74091	125.54184	590.86487	-290.64655	-20.56322	513.94348	654.50232	134.65132	502.31717	651.25891	
870	8.690	-126.33008	35.54023	-145.19920	161.24629	31.06428	-181.49600	-195.14540	-22.76005	455.15598	264.35938	-21.95891	473.38434	-38.00634	1226.24036	-236.77498	-32.77502	596.63403	-286.03391	126.87418	591.02612	-288.67050	-18.21589	513.45752	656.68433	136.44193	501.43851	652.63098	
871	8.700	-125.76442	35.81317	-144.98199	160.82928	31.19820	-181.24927	-195.47131	-22.32368	455.23395	264.82602	-20.94864	472.41302	-36.33084	1226.75305	-234.20416	-31.24990	596.97345	-284.41183	128.56422	591.44348	-287.43121	-16.38196	513.87433	657.75464	138.52090	502.01614	654.07471	
872	8.710	-125.47348	35.64674	-142.47565	161.31277	33.87033	-181.46783	-194.56633	-19.79327	455.02081	263.56186	-22.43924	474.43668	-33.82239	1227.90845	-231.81274	-29.08099	597.56573	-282.73581	130.66104	592.03827	-285.80902	-13.74441	514.13812	659.18512	141.05261	502.36768	655.49115	
873	8.720	-126.02545	36.05365	-142.67879	160.34984	37.80783	-179.30054	-191.06593	-16.62796	454.97998	262.76389	-23.30561	475.02435	-31.31435	1229.45142	-229.97008	-27.82669	598.89435	-281.31702	132.15445	593.12927	-284.09897	-11.87714	513.36707	660.44867	143.16359	501.75116	656.85297	
874	8.730	-126.36485	36.12888	-143.39709	159.23309	42.18944	-176.02382	-186.33946	-14.42324	457.50708	262.85345	-23.73117	473.76965	-29.33833	1230.53748	-227.99710	-26.62083	600.08704	-279.97406	133.65338	594.14001	-283.33057	-9.98600	512.11725	661.52350	144.84380	500.53198	657.80878	
875	8.740	-127.28290	35.53545	-142.52631	160.18452	52.21598	-175.10843	-180.78535	-6.89326	457.44794	262.36755	-24.14200	475.18167	-27.42488	1231.15027	-225.88860	-25.15760	600.41449	-279.19104	134.97379	594.86780	-282.57071	-8.20366	510.96588	662.39313	146.62343	499.30399	658.64630	
876	8.750	-128.34706	35.32738	-143.35825	163.05400	61.83066	-173.91780	-175.98206	2.13251	456.56509	261.83047	-24.06890	474.22076	-25.28386	1231.07227	-223.24911	-24.02576	600.69873	-278.29221	136.02670	595.28912	-281.86713	-6.09449	509.79932	663.60162	148.68799	498.44647	659.16498	
877	8.760	-129.14526	35.20263	-142.99312	167.83893	74.97554	-174.25458	-172.03249	13.56771	457.11243	261.43417	-24.03391	474.56909	-24.29938	1231.60852	-221.02943	-23.20590	601.09711	-277.61203	136.72993	595.44348	-281.41757	-4.62867	509.05817	663.84912	150.62866	497.50757	659.58435	
